<svg width="256" height="256" viewBox="0 0 256 256" fill="none" xmlns="http://www.w3.org/2000/svg">
<g clip-path="url(#clip0_126_680)">
<rect width="256" height="256" fill="white"/>
<rect width="256" height="256" fill="#153452"/>
<path fill-rule="evenodd" clip-rule="evenodd" d="M39.2987 19.2397C31.8276 24.4608 30.4717 34.1452 36.2719 40.8704L87.6449 100.459V224.584C87.6449 233.098 95.3077 240 104.765 240C114.222 240 121.884 233.098 121.884 224.584V95.0883C121.884 90.6953 119.844 86.7322 116.57 83.924C116.214 83.3813 115.81 82.8522 115.372 82.3398L63.3142 21.9634C57.5209 15.2377 46.7629 14.0186 39.2987 19.2397Z" fill="#A1C48F"/>
<path fill-rule="evenodd" clip-rule="evenodd" d="M218.165 19.2397C225.636 24.4608 226.992 34.1452 221.192 40.8704L169.819 100.459V224.584C169.819 233.098 162.156 240 152.699 240C143.242 240 135.58 233.098 135.58 224.584V95.0883C135.58 90.6953 137.62 86.7322 140.894 83.924C141.25 83.3813 141.654 82.8522 142.092 82.3398L194.15 21.9634C199.943 15.2377 210.701 14.0186 218.165 19.2397Z" fill="#A1C48F"/>
<path d="M238.08 59.2574C241.175 55.6698 240.449 50.5029 236.471 47.7169C232.485 44.9315 226.747 45.5821 223.651 49.1703L182.269 97.1706C179.174 100.759 179.9 105.926 183.886 108.711C187.864 111.497 193.603 110.846 196.698 107.258L238.08 59.2574Z" fill="#C4DCB8"/>
<path d="M17.9195 59.2574C14.8243 55.6698 15.5502 50.5029 19.5356 47.7169C23.5143 44.9315 29.2528 45.5821 32.3481 49.1703L73.73 97.1706C76.8252 100.759 76.0993 105.926 72.1207 108.711C68.1352 111.497 62.3967 110.846 59.3014 107.258L17.9195 59.2574Z" fill="#C4DCB8"/>
</g>
<defs>
<clipPath id="clip0_126_680">
<rect width="256" height="256" fill="white"/>
</clipPath>
</defs>
</svg>
